<svg id="Layer_1" data-name="Layer 1" xmlns="http://www.w3.org/2000/svg" width="1473.28" height="714.23" viewBox="0 0 1473.28 714.23"><defs><style>.cls-1,.cls-2{fill:#004b85;stroke:#004b85;}.cls-1{stroke-miterlimit:10;}.cls-2{stroke-linecap:square;}</style></defs><circle class="cls-1" cx="55.19" cy="49.19" r="5"/><circle class="cls-1" cx="105.19" cy="83.19" r="5"/><circle class="cls-1" cx="163.19" cy="49.19" r="5"/><circle class="cls-1" cx="231.19" cy="56.19" r="5"/><circle class="cls-1" cx="309.19" cy="9.19" r="5"/><circle class="cls-1" cx="306.19" cy="75.19" r="5"/><circle class="cls-1" cx="371.19" cy="49.19" r="5"/><circle class="cls-1" cx="422.19" cy="83.19" r="5"/><circle class="cls-1" cx="479.19" cy="49.19" r="5"/><circle class="cls-1" cx="547.19" cy="56.19" r="5"/><circle class="cls-1" cx="624.19" cy="9.19" r="5"/><circle class="cls-1" cx="622.19" cy="75.19" r="5"/><circle class="cls-1" cx="687.19" cy="49.19" r="5"/><circle class="cls-1" cx="669.19" cy="131.19" r="5"/><circle class="cls-1" cx="649.19" cy="186.19" r="5"/><circle class="cls-1" cx="725.19" cy="190.19" r="5"/><circle class="cls-1" cx="760.19" cy="146.19" r="5"/><circle class="cls-1" cx="738.19" cy="83.19" r="5"/><circle class="cls-1" cx="794.19" cy="49.19" r="5"/><circle class="cls-1" cx="789.19" cy="121.19" r="5"/><circle class="cls-1" cx="807.19" cy="210.19" r="5"/><circle class="cls-1" cx="856.19" cy="243.19" r="5"/><circle class="cls-1" cx="885.19" cy="189.19" r="5"/><circle class="cls-1" cx="886.19" cy="121.19" r="5"/><circle class="cls-1" cx="863.19" cy="56.19" r="5"/><circle class="cls-1" cx="941.19" cy="9.19" r="5"/><circle class="cls-1" cx="938.19" cy="75.19" r="5"/><circle class="cls-1" cx="1004.19" cy="49.19" r="5"/><circle class="cls-1" cx="1053.19" cy="83.19" r="5"/><circle class="cls-1" cx="985.19" cy="131.19" r="5"/><circle class="cls-1" cx="965.19" cy="186.19" r="5"/><circle class="cls-1" cx="945.19" cy="235.19" r="5"/><circle class="cls-1" cx="907.19" cy="290.19" r="5"/><circle class="cls-1" cx="993.19" cy="282.19" r="5"/><circle class="cls-1" cx="941.19" cy="325.19" r="5"/><circle class="cls-1" cx="863.19" cy="372.19" r="5"/><circle class="cls-1" cx="938.19" cy="391.19" r="5"/><circle class="cls-1" cx="1004.19" cy="365.19" r="5"/><circle class="cls-1" cx="1053.19" cy="399.19" r="5"/><circle class="cls-1" cx="1110.19" cy="365.19" r="5"/><circle class="cls-1" cx="1105.19" cy="437.19" r="5"/><circle class="cls-1" cx="1045.19" cy="296.19" r="5"/><circle class="cls-1" cx="1093.19" cy="296.19" r="5"/><circle class="cls-1" cx="1074.19" cy="244.19" r="5"/><circle class="cls-1" cx="1041.19" cy="190.19" r="5"/><circle class="cls-1" cx="1076.19" cy="146.19" r="5"/><circle class="cls-1" cx="1105.19" cy="121.19" r="5"/><circle class="cls-1" cx="1110.19" cy="49.19" r="5"/><circle class="cls-1" cx="1179.19" cy="56.19" r="5"/><circle class="cls-1" cx="1258.19" cy="9.19" r="5"/><circle class="cls-1" cx="1253.19" cy="75.19" r="5"/><circle class="cls-1" cx="1202.19" cy="121.19" r="5"/><circle class="cls-1" cx="1202.19" cy="189.19" r="5"/><circle class="cls-1" cx="1281.19" cy="186.19" r="5"/><circle class="cls-1" cx="1301.19" cy="131.19" r="5"/><circle class="cls-1" cx="1319.19" cy="49.19" r="5"/><circle class="cls-1" cx="1369.19" cy="83.19" r="5"/><circle class="cls-1" cx="1391.19" cy="146.19" r="5"/><circle class="cls-1" cx="1357.19" cy="191.19" r="5"/><circle class="cls-1" cx="1421.19" cy="121.19" r="5"/><circle class="cls-1" cx="1123.19" cy="210.19" r="5"/><circle class="cls-1" cx="1159.19" cy="310.19" r="5"/><circle class="cls-1" cx="1171.19" cy="243.19" r="5"/><circle class="cls-1" cx="1224.19" cy="290.19" r="5"/><circle class="cls-1" cx="1179.19" cy="372.19" r="5"/><circle class="cls-1" cx="886.19" cy="437.19" r="5"/><circle class="cls-1" cx="985.19" cy="447.19" r="5"/><circle class="cls-1" cx="886.19" cy="505.19" r="5"/><circle class="cls-1" cx="965.19" cy="502.19" r="5"/><circle class="cls-1" cx="945.19" cy="551.19" r="5"/><circle class="cls-1" cx="856.19" cy="560.19" r="5"/><circle class="cls-1" cx="907.19" cy="606.19" r="5"/><circle class="cls-1" cx="844.19" cy="626.19" r="5"/><circle class="cls-1" cx="993.19" cy="598.19" r="5"/><circle class="cls-1" cx="1040.19" cy="506.19" r="5"/><circle class="cls-1" cx="1076.19" cy="462.19" r="5"/><circle class="cls-1" cx="1075.19" cy="560.19" r="5"/><circle class="cls-1" cx="1123.19" cy="527.19" r="5"/><circle class="cls-1" cx="1093.19" cy="611.19" r="5"/><circle class="cls-1" cx="1171.19" cy="560.19" r="5"/><circle class="cls-1" cx="1202.19" cy="505.19" r="5"/><circle class="cls-1" cx="1202.19" cy="437.19" r="5"/><circle class="cls-1" cx="1159.19" cy="626.19" r="5"/><circle class="cls-1" cx="1224.19" cy="606.19" r="5"/><circle class="cls-1" cx="1260.19" cy="551.19" r="5"/><circle class="cls-1" cx="1309.19" cy="598.19" r="5"/><circle class="cls-1" cx="1357.19" cy="506.19" r="5"/><circle class="cls-1" cx="1391.19" cy="462.19" r="5"/><circle class="cls-1" cx="1391.19" cy="560.19" r="5"/><circle class="cls-1" cx="1362.19" cy="612.19" r="5"/><circle class="cls-1" cx="1409.19" cy="612.19" r="5"/><circle class="cls-1" cx="1421.19" cy="437.19" r="5"/><circle class="cls-1" cx="1409.19" cy="296.19" r="5"/><circle class="cls-1" cx="1281.19" cy="502.19" r="5"/><circle class="cls-1" cx="1301.19" cy="447.19" r="5"/><circle class="cls-1" cx="1255.19" cy="391.19" r="5"/><circle class="cls-1" cx="1258.19" cy="325.19" r="5"/><circle class="cls-1" cx="1260.19" cy="235.19" r="5"/><circle class="cls-1" cx="1309.19" cy="282.19" r="5"/><circle class="cls-1" cx="1319.19" cy="365.19" r="5"/><circle class="cls-1" cx="1369.19" cy="399.19" r="5"/><circle class="cls-1" cx="1362.19" cy="296.19" r="5"/><circle class="cls-1" cx="1391.19" cy="243.19" r="5"/><circle class="cls-1" cx="1045.19" cy="612.19" r="5"/><circle class="cls-1" cx="758.19" cy="244.19" r="5"/><circle class="cls-1" cx="776.19" cy="296.19" r="5"/><circle class="cls-1" cx="794.19" cy="365.19" r="5"/><circle class="cls-1" cx="844.19" cy="310.19" r="5"/><circle class="cls-1" cx="571.19" cy="121.19" r="5"/><circle class="cls-1" cx="570.19" cy="189.19" r="5"/><circle class="cls-1" cx="474.19" cy="121.19" r="5"/><circle class="cls-1" cx="443.19" cy="146.19" r="5"/><circle class="cls-1" cx="409.19" cy="190.19" r="5"/><circle class="cls-1" cx="443.19" cy="243.19" r="5"/><circle class="cls-1" cx="490.19" cy="210.19" r="5"/><circle class="cls-1" cx="540.19" cy="243.19" r="5"/><circle class="cls-1" cx="527.19" cy="310.19" r="5"/><circle class="cls-1" cx="591.19" cy="290.19" r="5"/><circle class="cls-1" cx="547.19" cy="372.19" r="5"/><circle class="cls-1" cx="622.19" cy="391.19" r="5"/><circle class="cls-1" cx="624.19" cy="325.19" r="5"/><circle class="cls-1" cx="677.19" cy="282.19" r="5"/><circle class="cls-1" cx="687.19" cy="365.19" r="5"/><circle class="cls-1" cx="730.19" cy="296.19" r="5"/><circle class="cls-1" cx="738.19" cy="399.19" r="5"/><circle class="cls-1" cx="760.19" cy="462.19" r="5"/><circle class="cls-1" cx="789.19" cy="437.19" r="5"/><circle class="cls-1" cx="807.19" cy="527.19" r="5"/><circle class="cls-1" cx="760.19" cy="560.19" r="5"/><circle class="cls-1" cx="730.19" cy="611.19" r="5"/><circle class="cls-1" cx="777.19" cy="611.19" r="5"/><circle class="cls-1" cx="570.19" cy="437.19" r="5"/><circle class="cls-1" cx="570.19" cy="505.19" r="5"/><circle class="cls-1" cx="669.19" cy="447.19" r="5"/><circle class="cls-1" cx="649.19" cy="502.19" r="5"/><circle class="cls-1" cx="629.19" cy="551.19" r="5"/><circle class="cls-1" cx="677.19" cy="598.19" r="5"/><circle class="cls-1" cx="725.19" cy="506.19" r="5"/><circle class="cls-1" cx="540.19" cy="560.19" r="5"/><circle class="cls-1" cx="591.19" cy="606.19" r="5"/><circle class="cls-1" cx="527.19" cy="626.19" r="5"/><circle class="cls-1" cx="629.19" cy="235.19" r="5"/><circle class="cls-1" cx="353.19" cy="131.19" r="5"/><circle class="cls-1" cx="333.19" cy="186.19" r="5"/><circle class="cls-1" cx="361.19" cy="282.19" r="5"/><circle class="cls-1" cx="414.19" cy="296.19" r="5"/><circle class="cls-1" cx="372.19" cy="365.19" r="5"/><circle class="cls-1" cx="422.19" cy="399.19" r="5"/><circle class="cls-1" cx="479.19" cy="365.19" r="5"/><circle class="cls-1" cx="474.19" cy="437.19" r="5"/><circle class="cls-1" cx="443.19" cy="462.19" r="5"/><circle class="cls-1" cx="490.19" cy="527.19" r="5"/><circle class="cls-1" cx="443.19" cy="561.19" r="5"/><circle class="cls-1" cx="414.19" cy="612.19" r="5"/><circle class="cls-1" cx="461.19" cy="612.19" r="5"/><circle class="cls-1" cx="461.19" cy="296.19" r="5"/><circle class="cls-1" cx="313.19" cy="235.19" r="5"/><circle class="cls-1" cx="309.19" cy="325.19" r="5"/><circle class="cls-1" cx="306.19" cy="391.19" r="5"/><circle class="cls-1" cx="254.19" cy="437.19" r="5"/><circle class="cls-1" cx="254.19" cy="505.19" r="5"/><circle class="cls-1" cx="223.19" cy="560.19" r="5"/><circle class="cls-1" cx="212.19" cy="626.19" r="5"/><circle class="cls-1" cx="275.19" cy="606.19" r="5"/><circle class="cls-1" cx="313.19" cy="551.19" r="5"/><circle class="cls-1" cx="333.19" cy="502.19" r="5"/><circle class="cls-1" cx="361.19" cy="598.19" r="5"/><circle class="cls-1" cx="409.19" cy="506.19" r="5"/><circle class="cls-1" cx="353.19" cy="447.19" r="5"/><circle class="cls-1" cx="223.19" cy="243.19" r="5"/><circle class="cls-1" cx="275.19" cy="290.19" r="5"/><circle class="cls-1" cx="212.19" cy="310.19" r="5"/><circle class="cls-1" cx="231.19" cy="372.19" r="5"/><circle class="cls-1" cx="254.19" cy="121.19" r="5"/><circle class="cls-1" cx="254.19" cy="189.19" r="5"/><circle class="cls-1" cx="175.19" cy="210.19" r="5"/><circle class="cls-1" cx="126.19" cy="244.19" r="5"/><circle class="cls-1" cx="98.19" cy="296.19" r="5"/><circle class="cls-1" cx="45.19" cy="282.19" r="5"/><circle class="cls-1" cx="55.19" cy="365.19" r="5"/><circle class="cls-1" cx="145.19" cy="296.19" r="5"/><circle class="cls-1" cx="163.19" cy="365.19" r="5"/><circle class="cls-1" cx="158.19" cy="437.19" r="5"/><circle class="cls-1" cx="175.19" cy="527.19" r="5"/><circle class="cls-1" cx="145.19" cy="612.19" r="5"/><circle class="cls-1" cx="128.19" cy="462.19" r="5"/><circle class="cls-1" cx="126.19" cy="560.19" r="5"/><circle class="cls-1" cx="98.19" cy="612.19" r="5"/><circle class="cls-1" cx="45.19" cy="598.19" r="5"/><circle class="cls-1" cx="93.19" cy="507.19" r="5"/><circle class="cls-1" cx="37.19" cy="447.19" r="5"/><circle class="cls-1" cx="17.19" cy="502.19" r="5"/><circle class="cls-1" cx="105.19" cy="399.19" r="5"/><circle class="cls-1" cx="158.19" cy="121.19" r="5"/><circle class="cls-1" cx="128.19" cy="146.19" r="5"/><circle class="cls-1" cx="37.19" cy="131.19" r="5"/><circle class="cls-1" cx="17.19" cy="186.19" r="5"/><circle class="cls-1" cx="93.19" cy="190.19" r="5"/><path class="cls-2" d="M-2.5,9.5l52,34m-51,42,32,39m6,5,51,55m-34-138,49,33m-104-2,123,64m-17-61,48,35m5,4,90,64m-142-106,52-31m75,7,67,16m-141,44,67-59m-189,71,63-44m-101,101h12m-12,316h12m8-316,68,4m-88,95,40-3m7,1,46,12m37-151,25-20m-156-53,52-21m-51,78,32,3m128-10h89m7,1,92,9m-348,21,32-19m62,53,30-38m-26,144,25-45m22,45,27-79m36,92-34-92m44,27-42-28m95,74-46-41m45,46-55,17m141-26-78,7m-233-11,45-85m39,49,42-31m52,28,27-47m-39,114,10-59m55,39,33-49m47,42-42-42m-7,86-31-31m-3-6-20-94m55,40-52-41m-155,105h38m9,1,59,11m-30-99,72-20m6-2,93-54m-332,50,18-48m-34,87,14-33m-14,129,40-34m271,38,45-38m-301-237,29-47m227,11,56,36m-59,26,59-23m4-3,29-47m-236,46,38-44m-98,77-7-76m28,139-20-56m19,154,3-91m44,58-42-59m-7,92-28-46m-54,85-40-39m96,53-5-100m272,90,46,12m5-3,25-45m22,45,27-79m36,92-34-92m44,27-42-28m95,74-46-41m45,46-55,17m141-26-78,7m-233-11,45-85m133,46,27-47m-27,363,27-47m-39-202,10-59m55,39,33-49m47,42-42-42m-7,86-31-31m-3-6-20-94m55,40-52-41m-155,105h38m9,1,59,11m104,14,45-38m-260,9-5-100m272,90,46,12m5-3,25-45m22,45,27-79m36,92-34-92m44,27-42-28m95,74-46-41m45,46-55,17m141-26-78,7m-233-11,45-85m133,46,27-47m-39,114,10-59m55,39,33-49m47,42-42-42m-7,86-31-31m-3-6-20-94m55,40-52-41m-155,105h38m7,1,61,11m104,14,45-38m-260,9-5-100m272,90,46,12m5-3,25-45m22,45,27-79m36,92-34-92m44,27-42-28m95,74-46-41m45,46-55,17m141-26-78,7m-233-11,45-85m133,46,27-47m-39,114,10-59m55,39,33-49m47,42-42-42m-7,86-31-31m-3-6-20-94m55,40-52-41m-155,105h38m9,1,59,11m104,14,45-38m-260,9-5-100m272,90,46,12m5-3,25-45m22,45,27-79m-127,65,45-85m11,103h38m9,1,59,11m-111-15-5-100m-914-51-20-56m20,373-20-56m336-261-20-56m-579,32,4-66m10,154-15-81m94-7-21-59m-69-12-11-46m81,52,27-50m-6,182,1-61m52-53,2-59m41,116-41-50m47,55,51,55m70-65,90,64m-309,1,72-2m8,0,68,4m72-69h89m7,1,92,9m-254,55,30-38m5,94,42-31m6-2,72-20m6-2,93-54m-332,50,18-48m-37,96,17-42m110,51,3-91m44,58-42-59m-7,92-28-46m78,12-15-81m94-7-21-59m22,126,1-61m315,61,1-61m-221,4-41-50m47,55,51,55m70-65,90,64m-309,1,72-2m8,0,68,4m72-69h89m7,1,92,9m-254,55,30-38m5,94,42-31m6-2,72-20m6-2,93-54m-332,50,18-48m-37,96,17-42m110,51,3-91m44,58-42-59m-7,92-28-46m78,12-15-81m94-7-21-59m118,69-41-50m261,107,1-61m-215,9,51,55m70-65,90,64m-309,1,72-2m8,0,68,4m72-69h89m7,1,92,9m-254,55,30-38m5,94,42-31m6-2,72-20m6-2,93-54m-332,50,18-48m-37,96,17-42m110,51,3-91m44,58-42-59m-7,92-28-46m260-61,51,55m-149,0,72-2m8,0,68,4m6-4,30-38m5,94,42-31m-155-28,18-48m-37,96,17-42m110,51,3-91m44,58-42-59m-7,92-28-46m-238,12-15-81m94-7-21-59m118,69-41-50m-944-72,3-3m-86,50-15-50m92,3-2-3m68,47,49,33m-113-7,132,69m-17-61,48,35m-47-38,52-31m75,7,67,16m-141,44,67-59m-189,71,63-44m29,59,25-20m291,20,25-20m291,20,25-20m291,20,25-20m-792-113,56,36m-59,26,59-23m4-3,29-47m-236,46,38-44m-98,77-7-76m61,115,4-66m-1-5-11-46m81,52,27-50m47,68,2-59m4-6,3-3m-86,50-15-50m92,3-2-3m68,47,49,33m-113-7,132,69m-17-61,48,35m-47-38,52-31m75,7,67,16m-141,44,67-59m-189,71,63-44m210-74,56,36m-59,26,59-23m4-3,29-47m-236,46,38-44m-98,77-7-76m61,115,4-66m-1-5-11-46m81,52,27-50m47,68,2-59m4-6,3-3m-86,50-15-50m92,3-2-3m138,139-20-56m-50-36,49,33m267-33,49,33m-429-7,132,69m-17-61,48,35m-47-38,52-31m75,7,67,16m-141,44,67-59m-189,71,63-44m210-74,56,36m-59,26,59-23m4-3,29-47m-236,46,38-44m-98,77-7-76m61,115,4-66m-1-5-11-46m291,141-20-56m-114-10,132,69m-17-61,48,35m-47-38,52-31m-121,79,63-44m3-6-7-76m64,44-11-46m-235,52,27-50m47,68,2-59m4-6,3-3m-86,50-15-50m92,3-2-3m-1252,327,52,34m-51,42,32,39m6,5,51,55m-34-138,49,33m-104-2,123,64m-17-61,48,35m5,4,90,64m-142-106,52-31m75,7,67,16m-141,44,67-59m-189,71,63-44m-81,101,68,4m-88,95,40-3m7,1,46,12m37-151,25-20m-156-53,52-21m-51,78,32,3m128-10h89m7,1,92,9m-348,21,32-19m62,53,30-38m-26,144,25-45m22,45,27-79m36,92-34-92m44,27-42-28m95,74-46-41m45,46-55,17m141-26-78,7m-233-11,45-85m39,49,42-31m52,28,27-47m-39,114,10-59m55,39,33-49m47,42-42-42m-7,86-31-31m-3-6-20-94m55,40-52-41m-155,105h38m9,1,59,11m-30-99,72-20m6-2,93-54m-332,50,18-48m-34,87,14-33m-14,129,40-34m271,38,45-38m-301-237,39-66m217,30,56,36m-59,26,59-23m4-3,39-64m-246,63,45-52m-105,85-8-98m29,161-20-56m19,154,3-91m44,58-42-59m-7,92-28-46m-54,85-40-39m96,53-5-100m272,90,46,12m5-3,25-45m22,45,27-79m36,92-34-92m44,27-42-28m95,74-46-41m45,46-55,17m141-26-78,7m-233-11,45-85m121,113,10-59m55,39,33-49m47,42-42-42m-7,86-31-31m-3-6-20-94m55,40-52-41m-155,105h38m9,1,59,11m104,14,45-38m-260,9-5-100m272,90,46,12m5-3,25-45m22,45,27-79m36,92-34-92m97,73-46-41m45,46-55,17m141-26-78,7m-233-11,45-85m133,46,27-47m-39,114,10-59m55,39,33-49m47,42-42-42m-7,86-31-31m-3-6-20-94m55,40-52-41m-155,105h38m9,1,59,11m104,14,45-38m-260,9-5-100m272,90,46,12m5-3,25-45m22,45,27-79m36,92-34-92m44,27-42-28m95,74-46-41m45,46-55,17m141-26-78,7m-233-11,45-85m133,46,27-47m-39,114,10-59m55,39,33-49m47,42-42-42m-7,86-31-31m-3-6-20-94m55,40-52-41m-155,105h38m9,1,59,11m104,14,45-38m-260,9-5-100m272,90,46,12m5-3,25-45m22,45,27-79m-127,65,45-85m11,103h38m9,1,59,11m-111-15-5-100m-598-51-20-56m-579,32,4-66m10,154-15-81m94-7-21-59m-69-12-16-66m86,72,41-78m-20,210,1-61m52-53,2-59m41,116-41-50m47,55,51,55m70-65,90,64m-309,1,72-2m8,0,68,4m72-69h89m7,1,92,9m-254,55,30-38m5,94,42-31m6-2,72-20m6-2,93-54m-332,50,18-48m-37,96,17-42m110,51,3-91m44,58-42-59m-7,92-28-46m78,12-15-81m94-7-21-59m22,126,1-61m315,61,1-61m-221,4-41-50m47,55,51,55m70-65,90,64m-309,1,72-2m8,0,68,4m72-69h89m7,1,92,9m-254,55,30-38m5,94,42-31m6-2,72-20m6-2,93-54m-332,50,18-48m-37,96,17-42m110,51,3-91m44,58-42-59m-7,92-28-46m78,12-15-81m94-7-21-59m118,69-41-50m261,107,1-61m-215,9,51,55m70-65,90,64m-309,1,72-2m8,0,68,4m72-69h89m7,1,92,9m-254,55,30-38m5,94,42-31m6-2,72-20m6-2,93-54m-332,50,18-48m-37,96,17-42m110,51,3-91m44,58-42-59m-7,92-28-46m260-61,51,55m-149,0,72-2m8,0,68,4m6-4,30-38m5,94,42-31m-155-28,18-48m-37,96,17-42m110,51,3-91m44,58-42-59m-7,92-28-46m-238,12-15-81m94-7-21-59m118,69-41-50m-1027-25-17-58m160,55,49,33m-113-7,132,69m-17-61,48,35m-47-38,52-31m75,7,67,16m-141,44,67-59m-189,71,63-44m29,59,25-20m291,20,25-20m291,20,25-20m291,20,25-20m-793-114,57,37m-59,26,59-23m4-3,40-66m-247,65,43-51m-103,84-8-96m62,135,4-66m-1-5-16-64m86,70,41-77m33,95,2-59m-79,41-17-57m160,54,49,33m-113-7,132,69m-17-61,48,35m-47-38,52-31m75,7,67,16m-141,44,67-59m-189,71,63-44m210-74,56,36m-59,26,59-23m4-3,39-64m-246,63,44-51m-104,84-8-98m62,137,4-66m-1-5-16-66m86,72,41-78m33,96,2-59m-79,41-17-57m230,146-20-56m-50-36,49,33m267-33,49,33m-429-7,132,69m-17-61,48,35m-47-38,52-31m75,7,67,16m-141,44,67-59m-189,71,63-44m210-74,56,36m-59,26,59-23m4-3,39-66m-246,65,44-51m-104,84-7-96m61,135,4-66m-1-5-16-66m296,161-20-56m-114-10,132,69m-17-61,48,35m-47-38,52-31m-121,79,63-44m3-6-7-98m64,66-16-66m-230,72,41-78m33,96,2-59m-79,41-17-57m-1104,368,39-66m277,66,39-64m-246,63,45-52m-105,85-8-98m65,66-16-66m86,72,41-78m-44,78-17-58m476,52,40-66m-247,65,43-51m-103,84-8-96m65,64-16-64m86,70,41-77m-44,77-17-57m476,51,39-64m-246,63,44-51m-104,84-8-98m65,66-16-66m86,72,41-78m-44,78-17-57m476,51,39-66m-246,65,44-51m-104,84-7-96m64,64-16-66m275,98-7-98m64,66-16-66m-230,72,41-78m-44,78-17-57" transform="translate(3.19 4.19)"/></svg>